<svg width="30" height="30" viewBox="0 0 30 30" fill="none" xmlns="http://www.w3.org/2000/svg">
<path d="M14.9981 0.312241C6.71625 0.312241 0 7.05474 0 15.3722C0 22.0247 4.2975 27.6685 10.26 29.6616C11.01 29.8004 11.2838 29.3354 11.2838 28.936C11.2838 28.5779 11.2706 27.631 11.2631 26.3747C7.09125 27.2841 6.21 24.3554 6.21 24.3554C5.52938 22.6154 4.545 22.1522 4.545 22.1522C3.18187 21.2185 4.64625 21.2372 4.64625 21.2372C6.15188 21.3441 6.94313 22.7897 6.94313 22.7897C8.28187 25.0904 10.455 24.4266 11.31 24.0404C11.445 23.0672 11.8331 22.4035 12.2625 22.0266C8.9325 21.646 5.43 20.3541 5.43 14.5847C5.43 12.9404 6.015 11.596 6.975 10.5422C6.81938 10.1616 6.30562 8.62974 7.12125 6.55787C7.12125 6.55787 8.38125 6.15287 11.2463 8.10099C12.4425 7.76724 13.725 7.60037 15.0019 7.59474C16.275 7.60224 17.5594 7.76724 18.7575 8.10287C21.6206 6.15474 22.8787 6.55974 22.8787 6.55974C23.6962 8.63349 23.1825 10.1635 23.0287 10.5441C23.9906 11.5979 24.57 12.9422 24.57 14.5866C24.57 20.371 21.0637 21.6441 17.7225 22.0172C18.2606 22.4822 18.7406 23.401 18.7406 24.8054C18.7406 26.8191 18.7219 28.4429 18.7219 28.936C18.7219 29.3391 18.9919 29.8079 19.7531 29.6597C25.7062 27.6647 30 22.0229 30 15.3722C30 7.05474 23.2838 0.312241 14.9981 0.312241Z" fill="#E5E5E5"/>
</svg>
