<svg width="30" height="30" viewBox="0 0 30 30" fill="none" xmlns="http://www.w3.org/2000/svg">
<path d="M28.4683 7.97029C28.1442 6.7654 27.1942 5.8156 25.9895 5.49116C23.7887 4.88898 14.985 4.88898 14.985 4.88898C14.985 4.88898 6.1817 4.88898 3.98083 5.46833C2.79928 5.79243 1.82613 6.76558 1.50204 7.97029C0.922852 10.171 0.922852 14.7349 0.922852 14.7349C0.922852 14.7349 0.922852 19.3219 1.50204 21.4996C1.82648 22.7043 2.77611 23.6541 3.981 23.9786C6.20487 24.5809 14.9853 24.5809 14.9853 24.5809C14.9853 24.5809 23.7887 24.5809 25.9895 24.0016C27.1944 23.6773 28.1442 22.7275 28.4687 21.5228C29.0477 19.3219 29.0477 14.7581 29.0477 14.7581C29.0477 14.7581 29.0709 10.171 28.4683 7.97029ZM12.1821 18.9513V10.5186L19.5028 14.7349L12.1821 18.9513Z" fill="#E5E5E5"/>
</svg>
